<svg t="1586538988409" class="icon" viewBox="0 0 1024 1024" version="1.1" xmlns="http://www.w3.org/2000/svg" p-id="799" width="200" height="200"><path d="M442.6 611.1s18.1 35.5 77 38.5c49.2 2.6 70.7-5.8 76.4-8.6 0.7-0.3 0.6-1.3-0.1-1.6-2.1-0.9-6.8-2.9-16.6-7.5-16.1-7.5-13.4-15.3-19.9-20.8s-11.9-6.2-11.9-6.2-28.3 6.1-49.5 7.8-55.4-1.6-55.4-1.6z" fill="#FFB000" p-id="800"></path><path d="M536.3 652.5c-7.3 0-13.3-0.2-16.8-0.4-59.7-3.1-78.4-38.4-79.1-39.9l-2.1-4.1 4.5 0.4c0.3 0 34.5 3.2 55.1 1.6 20.7-1.7 48.9-7.7 49.1-7.7l0.4-0.1 0.4 0.1c0.3 0 6.2 0.9 13.2 6.8 2.7 2.3 4 4.8 5.3 7.3 2.2 4.2 4.4 8.6 14 13.1 9.7 4.5 14.3 6.5 16.5 7.5 1.2 0.5 2 1.7 2.1 3 0 1.3-0.7 2.5-1.9 3.1-15.7 7.8-42.2 9.3-60.7 9.3zM447.5 614c6.8 9.2 27.5 30.8 72.3 33.1 41.7 2.2 63.1-3.6 71.8-6.9-2.8-1.2-7-3.1-13.2-6-11.2-5.2-14.1-10.8-16.4-15.4-1.1-2.2-2.1-4.2-4-5.8-4.8-4.1-9-5.3-10.3-5.5-3.9 0.8-29.8 6.1-49.3 7.7-16.5 1.3-40.5-0.4-50.9-1.2z" fill="#333333" p-id="801"></path><path d="M409 637.5s18.1 35.5 77 38.5c49.2 2.6 70.7-5.8 76.4-8.6 0.7-0.3 0.6-1.3-0.1-1.6-2.1-0.9-6.8-2.9-16.6-7.5-16.1-7.5-13.4-15.3-19.9-20.8-6.5-5.5-11.9-6.2-11.9-6.2s-28.3 6.1-49.5 7.8c-21 1.7-55.4-1.6-55.4-1.6z" fill="#FFE600" p-id="802"></path><path d="M502.7 678.9c-7.3 0-13.3-0.2-16.8-0.4-59.7-3.1-78.4-38.4-79.1-39.9l-2.1-4.1 4.5 0.4c0.3 0 34.5 3.2 55.1 1.6 20.7-1.7 48.9-7.7 49.1-7.7l0.4-0.1 0.4 0.1c0.3 0 6.2 0.9 13.2 6.8 2.7 2.3 4 4.8 5.3 7.3 2.2 4.2 4.4 8.6 14 13.1s14.3 6.5 16.5 7.5c1.2 0.5 2 1.7 2.1 3 0 1.3-0.7 2.5-1.9 3.1-15.6 7.8-42.2 9.3-60.7 9.3z m-88.8-38.5c6.8 9.2 27.5 30.8 72.3 33.1 41.7 2.2 63.1-3.6 71.8-6.9-2.8-1.2-7-3.1-13.2-6-11.2-5.2-14.1-10.8-16.4-15.4-1.1-2.2-2.1-4.2-4-5.8-4.8-4.1-9-5.3-10.3-5.5-3.9 0.8-29.8 6.1-49.3 7.7-16.5 1.3-40.5-0.3-50.9-1.2z" fill="#333333" p-id="803"></path><path d="M823.8 420c-3.7-5.2-15-2.2-25.5 3.9-10.4 6.1-75.1 73.1-75.1 73.1l68.8 63s5.3 6.5 19.3 6.9c13.9 0.4 13.7-3 13.9-4.8 0.2-1.9-21.5-44-21.5-66.5s22.1-72.8 20.1-75.6z" fill="#FFB000" p-id="804"></path><path d="M813.4 569.5h-2.2c-13.8-0.4-20-6.5-21-7.6l-70.5-64.7 1.8-1.8c2.6-2.7 65-67.3 75.6-73.5 10.6-6.2 23.7-10.3 28.8-3.2 1.4 2 0.6 4.9-5.4 22.1-5.7 16.5-14.3 41.5-14.3 55 0 16.6 12.3 44.5 18.2 57.9 3 6.8 3.4 7.7 3.3 8.8v0.2c-0.5 4.7-4.6 6.8-14.3 6.8z m-86.5-72.6l67 61.4 0.1 0.1c0.2 0.2 5 5.6 17.4 6 6.7 0.2 9.5-0.5 10.6-1.2 0.6-0.3 0.6-0.4 0.7-1-0.3-0.9-1.5-3.7-2.8-6.7-6-13.7-18.6-42.3-18.6-60 0-14.4 8.4-38.8 14.6-56.7 2.6-7.6 5.4-15.5 5.7-17.9-2.9-2.8-12-0.7-21.8 5-8 4.7-50.2 47.4-72.9 71z m95.8 65.5z m0-0.6s0 0.1 0 0z m-1.3-141.2z" fill="#333333" p-id="805"></path><path d="M295.2 370.1s-97.2 34.7-97.2 116 102.4 131.8 102.4 131.8l-5.2-247.8z" fill="#AEEAFF" p-id="806"></path><path d="M303 621.9l-3.7-1.8c-0.3-0.1-26.2-13.1-51.8-35.8-34-30.3-52-64.3-52-98.2 0-34 17.1-65.3 49.6-90.4 24.3-18.9 48.3-27.5 49.3-27.9l3.3-1.2 5.3 255.3z m-10.2-248.2c-7.4 3-26.2 11.5-44.8 25.9-31.5 24.5-47.5 53.5-47.5 86.4 0 22.6 8.7 57.4 50.3 94.4 19.4 17.3 39.1 28.8 47 33.2l-5-239.9z" fill="#333333" p-id="807"></path><path d="M314.4 362.3l-16.9 4.7S271 416.1 271 487.9c0 78.2 29.2 132.8 29.2 132.8l12.4 2.9 1.8-261.3z" fill="#FFFFFF" p-id="808"></path><path d="M315.1 626.7l-16.6-3.9-0.5-1c-0.3-0.6-29.5-56.1-29.5-134 0-71.6 26.5-121.5 26.8-122l0.5-0.9 21.1-5.8-1.8 267.6z m-13.2-8.2l8.2 1.9 1.7-254.8-12.6 3.5c-3.6 7.1-25.7 53.8-25.7 118.7 0 71 24.6 122.9 28.4 130.7z" fill="#333333" p-id="809"></path><path d="M487.8 332.7h-52.1c-1.4 0-2.4-1.1-2.4-2.4v-14.7c0-1.4 1.1-2.4 2.4-2.4h52.1c1.4 0 2.4 1.1 2.4 2.4v14.7c0.1 1.3-1 2.4-2.4 2.4z" fill="#FFB000" p-id="810"></path><path d="M487.8 335.2h-52.1c-2.7 0-4.9-2.2-4.9-4.9v-14.7c0-2.7 2.2-4.9 4.9-4.9h52.1c2.7 0 4.9 2.2 4.9 4.9v14.7c0.1 2.7-2.2 4.9-4.9 4.9z m0-19.6l-52 0.1 0.1 14.6 52-0.1v-14.6z" fill="#333333" p-id="811"></path><path d="M478.3 313.2h-33c-1.4 0-2.4-1.1-2.4-2.4v-7.1c0-1.4 1.1-2.4 2.4-2.4h33c1.4 0 2.4 1.1 2.4 2.4v7.1c0 1.3-1.1 2.4-2.4 2.4z" fill="#FFE600" p-id="812"></path><path d="M478.3 315.7h-33c-2.7 0-4.9-2.2-4.9-4.9v-7.1c0-2.7 2.2-4.9 4.9-4.9h33c2.7 0 4.9 2.2 4.9 4.9v7.1c0 2.7-2.2 4.9-4.9 4.9z m0-5v2.5-2.5z m-0.1-7l-33 0.1 0.1 7 32.9-0.1v-7z" fill="#333333" p-id="813"></path><path d="M441.9 266.7h6.2c1.8 0 3.3 1.5 3.3 3.3v31.2h23.1v-46c0-4.2-3.4-7.6-7.6-7.6h-25v19.1z" fill="#FFB000" p-id="814"></path><path d="M477 303.7h-28.1V270c0-0.5-0.4-0.8-0.8-0.8h-8.7v-24h27.5c5.6 0 10.1 4.5 10.1 10.1v48.4z m-23.1-5H472v-43.5c0-2.8-2.3-5.1-5.1-5.1h-22.5v14h3.7c3.2 0 5.8 2.6 5.8 5.8v28.8z" fill="#333333" p-id="815"></path><path d="M440 280.5h-23.5c-1.1 0-1.9-0.9-1.9-1.9v-42.8c0-1.1 0.9-1.9 1.9-1.9H440c1.1 0 1.9 0.9 1.9 1.9v42.8c0 1-0.8 1.9-1.9 1.9z" fill="#FFE600" p-id="816"></path><path d="M440 283h-23.5c-2.4 0-4.4-2-4.4-4.4v-42.8c0-2.4 2-4.4 4.4-4.4H440c2.4 0 4.4 2 4.4 4.4v42.8c0 2.4-2 4.4-4.4 4.4z m-23-5h22.4v-41.7H417V278z" fill="#333333" p-id="817"></path><path d="M414.5 238.5s-8.8 3-8.8 16.4 8.8 21 8.8 21v-37.4z" fill="#AEEAFF" p-id="818"></path><path d="M417 281.3l-4.1-3.5c-0.4-0.3-9.7-8.5-9.7-22.9 0-15 10.1-18.6 10.5-18.8l3.3-1.1v46.3z m-5-38c-1.9 2-3.8 5.6-3.8 11.6 0 5.9 1.9 10.6 3.8 13.9v-25.5z" fill="#333333" p-id="819"></path><path d="M384.9 347.5s8.9-30.5 47.9-28.3c84.6 4.7 143.1 50.9 143.1 50.9l-191-22.6z" fill="#FFE600" p-id="820"></path><path d="M584.4 373.6l-202.7-24 0.8-2.8c0.1-0.3 9.9-32.4 50.4-30.1 84.4 4.7 143.9 51 144.5 51.4l7 5.5z m-195.9-28.2l177.9 21.1c-18.7-12.4-68.7-41.1-133.7-44.8-29.7-1.7-41 16.5-44.2 23.7z" fill="#333333" p-id="821"></path><path d="M361.2 344.1h-10.8c-0.7 0-1.3 0.6-1.3 1.3v8.2c0 0.7 0.6 1.3 1.3 1.3h10.8c0.7 0 1.3-0.6 1.3-1.3v-8.2c0-0.8-0.6-1.3-1.3-1.3z" fill="#FFB000" p-id="822"></path><path d="M361.2 357.3h-10.8c-2.1 0-3.8-1.7-3.8-3.8v-8.2c0-2.1 1.7-3.8 3.8-3.8h10.8c2.1 0 3.8 1.7 3.8 3.8v8.2c0 2.1-1.7 3.8-3.8 3.8z m-9.5-5h8.3v-5.8h-8.3v5.8z" fill="#333333" p-id="823"></path><path d="M317 357.2s-31.9 57.8-33.5 118.6 30.2 150.8 30.2 150.8 83.3 31.8 209.5 2.8c126.3-29 274.7-116.1 274.5-134.2s-130.1-96.7-210.8-121.7c-157-48.7-269.9-16.3-269.9-16.3z" fill="#FFE600" p-id="824"></path><path d="M418.1 644c-18.5 0-34.4-1.2-47.3-2.7-36.5-4.3-57.2-12.1-58-12.4l-1.1-0.4-0.4-1.1c-0.3-0.9-32-91.1-30.3-151.7 1.7-60.7 33.5-119.1 33.8-119.7l0.5-0.9 1-0.3c0.3-0.1 29-8.2 76.6-10.2 43.8-1.9 113.2 1.2 194.7 26.4 36.8 11.4 87.7 35.2 136.2 63.7 17.9 10.5 76.3 46 76.4 60.4 0 2 0.1 8.2-26.1 26.6-16.5 11.6-39.6 25.3-65.1 38.7-62.5 32.7-130 58.7-185.3 71.4-40.2 9.2-76.1 12.2-105.6 12.2z m-102.5-19.4c4.7 1.6 24.6 8.1 55.9 11.8 33.2 3.9 86.3 5.4 151.1-9.5 54.9-12.6 122-38.5 184.1-71 60.5-31.6 88.6-55 88.5-60.8 0-5.1-19.8-24.3-74-56.1-48.1-28.3-98.6-51.9-135.1-63.2-80.8-25-149.6-28.1-193-26.2-42.1 1.8-69 8.3-74.5 9.8-4 7.6-31.2 61.2-32.7 116.5-1.4 56 26.1 138.2 29.7 148.7z" fill="#333333" p-id="825"></path><path d="M732.2 442.6l13.5 8.4v85.6l-13.5 8.2z" fill="#FFFFFF" p-id="826"></path><path d="M729.7 549.3V438.1l18.4 11.5V538l-18.4 11.3z m5-102.2v93.3l8.4-5.2v-82.8l-8.4-5.3z" fill="#333333" p-id="827"></path><path d="M764.4 463.4l10.2 7.4v47.4l-10.8 7.4z" fill="#FFFFFF" p-id="828"></path><path d="M761.3 530.4l0.6-71.9 15.2 11v50l-15.8 10.9z m5.5-62.1l-0.4 52.6 5.7-3.9v-44.9l-5.3-3.8z" fill="#333333" p-id="829"></path><path d="M460.4 606.2c-66.4 0-120.4-54-120.4-120.4s54-120.4 120.4-120.4 120.4 54 120.4 120.4-54 120.4-120.4 120.4z m0-224c-57.1 0-103.6 46.5-103.6 103.6s46.5 103.6 103.6 103.6S564 542.9 564 485.8s-46.5-103.6-103.6-103.6z" fill="#FFFFFF" p-id="830"></path><path d="M460.4 608.7c-67.7 0-122.9-55.1-122.9-122.9 0-67.7 55.1-122.9 122.9-122.9 67.7 0 122.9 55.1 122.9 122.9 0 67.8-55.1 122.9-122.9 122.9z m0-240.7c-65 0-117.9 52.9-117.9 117.9s52.9 117.9 117.9 117.9 117.9-52.9 117.9-117.9S525.4 368 460.4 368z m0 223.9c-58.5 0-106.1-47.6-106.1-106.1s47.6-106.1 106.1-106.1c58.5 0 106.1 47.6 106.1 106.1s-47.6 106.1-106.1 106.1z m0-207.2c-55.7 0-101.1 45.3-101.1 101.1s45.3 101.1 101.1 101.1c55.7 0 101.1-45.3 101.1-101.1s-45.3-101.1-101.1-101.1z" fill="#333333" p-id="831"></path><path d="M460.4 485.8m-77.4 0a77.4 77.4 0 1 0 154.8 0 77.4 77.4 0 1 0-154.8 0Z" fill="#FFB000" p-id="832"></path><path d="M460.4 565.7c-44 0-79.9-35.8-79.9-79.9 0-44 35.8-79.9 79.9-79.9s79.9 35.8 79.9 79.9c0 44.1-35.8 79.9-79.9 79.9z m0-154.7c-41.3 0-74.9 33.6-74.9 74.9 0 41.3 33.6 74.9 74.9 74.9s74.9-33.6 74.9-74.9c0-41.4-33.6-74.9-74.9-74.9z" fill="#333333" p-id="833"></path><path d="M818.1 498.6h-72.4c-2.2 0-4-1.8-4-4v-0.9c0-2.2 1.8-4 4-4h72.4c2.2 0 4 1.8 4 4v0.9c0.1 2.2-1.7 4-4 4z" fill="#FFB000" p-id="834"></path><path d="M818.1 501.1h-72.4c-3.6 0-6.5-2.9-6.5-6.5v-0.9c0-3.6 2.9-6.5 6.5-6.5h72.4c3.6 0 6.5 2.9 6.5 6.5v0.9c0.1 3.6-2.9 6.5-6.5 6.5z m-72.4-9c-0.8 0-1.5 0.7-1.5 1.5v0.9c0 0.8 0.7 1.5 1.5 1.5h72.4c0.8 0 1.5-0.7 1.5-1.5v-0.9c0-0.8-0.7-1.5-1.5-1.5h-72.4z" fill="#333333" p-id="835"></path><path d="M804.8 450.3h-15.4c-2.2 0-4-1.8-4-4v-0.9c0-2.2 1.8-4 4-4h15.4c2.2 0 4 1.8 4 4v0.9c0 2.2-1.8 4-4 4z" fill="#FFFFFF" p-id="836"></path><path d="M804.8 452.8h-15.4c-3.6 0-6.5-2.9-6.5-6.5v-0.9c0-3.6 2.9-6.5 6.5-6.5h15.4c3.6 0 6.5 2.9 6.5 6.5v0.9c0 3.6-2.9 6.5-6.5 6.5z m-15.3-9c-0.8 0-1.5 0.7-1.5 1.5v0.9c0 0.8 0.7 1.5 1.5 1.5h15.4c0.8 0 1.5-0.7 1.5-1.5v-0.9c0-0.8-0.7-1.5-1.5-1.5h-15.4z" fill="#333333" p-id="837"></path><path d="M804.8 540.5h-15.4c-2.2 0-4-1.8-4-4v-0.9c0-2.2 1.8-4 4-4h15.4c2.2 0 4 1.8 4 4v0.9c0 2.2-1.8 4-4 4z" fill="#FFFFFF" p-id="838"></path><path d="M804.8 543h-15.4c-3.6 0-6.5-2.9-6.5-6.5v-0.9c0-3.6 2.9-6.5 6.5-6.5h15.4c3.6 0 6.5 2.9 6.5 6.5v0.9c0 3.6-2.9 6.5-6.5 6.5z m-15.3-9c-0.8 0-1.5 0.7-1.5 1.5v0.9c0 0.8 0.7 1.5 1.5 1.5h15.4c0.8 0 1.5-0.7 1.5-1.5v-0.9c0-0.8-0.7-1.5-1.5-1.5h-15.4z" fill="#333333" p-id="839"></path><path d="M358.8 343.6l-19.5 1.6v-20.5l19.8 2.5c4.1 0.5 7.2 4 7.2 8.2 0.1 4.2-3.2 7.8-7.5 8.2z" fill="#FFE600" p-id="840"></path><path d="M336.9 347.9v-26l22.6 2.8c5.4 0.7 9.4 5.3 9.4 10.7 0 5.5-4.3 10.3-9.9 10.7l-22.1 1.8z m5-20.4v14.9l16.8-1.4c3-0.2 5.3-2.8 5.3-5.7 0-2.9-2.2-5.3-5-5.7l-17.1-2.1z" fill="#333333" p-id="841"></path><path d="M339.4 326c0-0.6-0.6-1-1.1-0.7-2.2 1.2-6.8 4.2-6.8 9.1 0 4.8 4.5 8.5 6.7 10.1 0.5 0.4 1.2 0 1.2-0.6V326z" fill="#AEEAFF" p-id="842"></path><path d="M338.6 347c-0.7 0-1.3-0.2-1.9-0.6-2.9-2-7.8-6.2-7.8-12.1 0-6.3 5.6-10 8.1-11.3 1-0.5 2.2-0.5 3.2 0.1s1.6 1.7 1.6 2.8v17.8c0 1.2-0.7 2.3-1.8 2.9-0.4 0.3-0.9 0.4-1.4 0.4z m-1.7-17.8c-1.5 1.2-2.9 3-2.9 5.2s1.4 4.2 2.9 5.7v-10.9z" fill="#333333" p-id="843"></path><path d="M461.8 549.3l56.3-97.5H405.5z" fill="#FFE600" p-id="844"></path><path d="M461.8 554.3l-60.6-105h121.2l-60.6 105z m-52-100l52 90 52-90h-104z" fill="#333333" p-id="845"></path><path d="M462.1 471.7V491c-0.1 5.4-2.9 8.2-8.5 8.3h-6.9c-5.4-0.2-8.2-2.8-8.5-7.8V472c0.2-5.4 3.1-8.2 8.6-8.5h6.7c5.4 0.4 8.2 3.1 8.6 8.2z m-6.9 18.7v-17.6c-0.1-1.8-1.2-2.8-3.1-2.9h-4c-1.8 0.1-2.8 1.1-2.9 2.9v17.8c0.1 1.8 1.1 2.8 2.9 2.9h3.8c2-0.2 3.1-1.2 3.3-3.1zM482.6 463.6v35.8h-7.1v-35.8h7.1z" fill="#3F3F3F" p-id="846"></path></svg>